<svg xmlns="http://www.w3.org/2000/svg" xmlns:xlink="http://www.w3.org/1999/xlink" width="600" zoomAndPan="magnify" viewBox="0 0 450 449.999984" height="600" preserveAspectRatio="xMidYMid meet" version="1.0"><defs><clipPath id="d1187ec752"><path d="M 121.011719 121.730469 L 328.761719 121.730469 L 328.761719 167.675781 L 121.011719 167.675781 Z M 121.011719 121.730469 " clip-rule="nonzero"/></clipPath><clipPath id="da2d89c81b"><path d="M 206 278 L 244 278 L 244 428.101562 L 206 428.101562 Z M 206 278 " clip-rule="nonzero"/></clipPath></defs><path fill="#373737" d="M 161.398438 100.058594 L 158.390625 121.941406 L 224.894531 133.097656 L 291.40625 121.941406 L 288.390625 100.058594 L 271.632812 90.71875 L 224.890625 88.527344 L 171.785156 92.308594 L 161.398438 100.058594 " fill-opacity="1" fill-rule="nonzero"/><path fill="#e0dddc" d="M 224.894531 96.027344 C 224.894531 96.027344 273.296875 95.804688 288.390625 100.058594 C 285.261719 71.46875 275.414062 21.65625 245.765625 35.191406 C 245.765625 35.191406 241.449219 36.441406 236.40625 41.484375 C 231.375 46.53125 224.894531 45.449219 224.894531 45.449219 C 224.894531 45.449219 218.417969 46.53125 213.375 41.484375 C 208.335938 36.441406 204.015625 35.191406 204.015625 35.191406 C 174.367188 21.65625 164.519531 71.46875 161.398438 100.058594 C 176.484375 95.804688 224.894531 96.027344 224.894531 96.027344 " fill-opacity="1" fill-rule="nonzero"/><g clip-path="url(#d1187ec752)"><path fill="#e0dddc" d="M 326.019531 128.785156 C 315.613281 126.652344 297.125 130.496094 291.40625 121.941406 C 291.40625 121.941406 258.535156 124.382812 224.894531 124.382812 C 191.238281 124.382812 158.390625 121.941406 158.390625 121.941406 C 152.660156 130.496094 134.171875 126.652344 123.761719 128.785156 C 111.734375 131.273438 141.433594 138.621094 168.769531 145.703125 C 169.121094 149.886719 170.300781 159.925781 173.789062 165.738281 C 177.761719 172.367188 172.359375 156.445312 174.175781 147.054688 C 200.4375 153.207031 224.894531 152.546875 224.894531 152.546875 C 224.894531 152.546875 249.359375 153.207031 275.613281 147.054688 C 277.429688 156.445312 272.03125 172.367188 276 165.738281 C 279.488281 159.921875 280.667969 149.875 281.019531 145.695312 C 308.359375 138.621094 338.050781 131.269531 326.019531 128.785156 " fill-opacity="1" fill-rule="nonzero"/></g><path fill="#e0dddc" d="M 195.820312 224.898438 C 195.839844 224.890625 197.550781 224.382812 199.140625 223.730469 C 201.742188 222.65625 214.898438 217.796875 219.175781 217.144531 C 219.203125 217.140625 221.582031 216.765625 221.535156 214.886719 C 221.503906 213.667969 220.875 212.992188 219.757812 212.992188 C 219.175781 212.992188 218.457031 213.175781 217.625 213.53125 C 213.101562 215.472656 198.144531 222.007812 195.667969 224.644531 C 195.617188 224.695312 195.613281 224.773438 195.648438 224.828125 C 195.675781 224.875 195.726562 224.902344 195.78125 224.902344 C 195.792969 224.902344 195.808594 224.902344 195.820312 224.898438 " fill-opacity="1" fill-rule="nonzero"/><path fill="#e0dddc" d="M 250.644531 223.730469 C 252.234375 224.382812 253.945312 224.890625 253.964844 224.898438 C 253.976562 224.902344 253.992188 224.902344 254.007812 224.902344 C 254.011719 224.902344 254.011719 224.902344 254.015625 224.902344 C 254.101562 224.902344 254.167969 224.832031 254.167969 224.75 C 254.167969 224.695312 254.140625 224.644531 254.09375 224.617188 C 251.535156 221.957031 236.667969 215.464844 232.160156 213.53125 C 231.328125 213.175781 230.609375 212.992188 230.023438 212.992188 C 228.910156 212.992188 228.277344 213.667969 228.25 214.886719 C 228.207031 216.765625 230.582031 217.140625 230.605469 217.144531 C 234.886719 217.796875 248.046875 222.65625 250.644531 223.730469 " fill-opacity="1" fill-rule="nonzero"/><g clip-path="url(#da2d89c81b)"><path fill="#e41a30" d="M 233.417969 279.546875 C 233.042969 278.925781 232.144531 278.421875 231.421875 278.421875 L 218.367188 278.421875 C 217.640625 278.421875 216.742188 278.925781 216.367188 279.546875 L 206.886719 295.234375 C 206.503906 295.871094 206.628906 296.808594 207.175781 297.320312 L 212.695312 302.507812 C 213.167969 302.953125 213.746094 303.839844 213.957031 304.453125 L 218.46875 317.5 C 218.679688 318.113281 218.777344 319.167969 218.675781 319.808594 L 211.738281 413.054688 C 211.628906 413.765625 211.941406 414.773438 212.429688 415.296875 L 223.941406 427.609375 C 224.195312 427.878906 224.535156 428.027344 224.894531 428.027344 C 225.257812 428.027344 225.59375 427.878906 225.847656 427.609375 L 237.355469 415.296875 C 237.84375 414.773438 238.15625 413.765625 238.046875 413.054688 L 231.109375 319.808594 C 231.011719 319.167969 231.101562 318.113281 231.316406 317.5 L 235.828125 304.453125 C 236.042969 303.839844 236.621094 302.949219 237.089844 302.507812 L 242.613281 297.320312 C 243.15625 296.808594 243.285156 295.871094 242.898438 295.234375 L 233.417969 279.546875 " fill-opacity="1" fill-rule="nonzero"/></g><path fill="#ebe9e9" d="M 268.796875 234.511719 C 268.753906 234.4375 268.667969 234.410156 268.597656 234.449219 C 268.523438 234.480469 268.488281 234.5625 268.515625 234.640625 C 268.546875 234.722656 271.464844 243.015625 262.828125 251.367188 C 254.117188 259.789062 236.136719 276.320312 235.957031 276.484375 C 235.898438 276.542969 235.890625 276.632812 235.941406 276.695312 L 236.957031 278.003906 L 256.046875 308.117188 C 256.074219 308.164062 256.121094 308.191406 256.171875 308.191406 C 256.175781 308.191406 256.175781 308.191406 256.175781 308.191406 C 256.226562 308.191406 256.273438 308.167969 256.300781 308.125 C 256.378906 308.019531 263.945312 297.390625 270.066406 284.550781 C 275.726562 272.683594 281.269531 256.441406 275.550781 246.480469 L 268.796875 234.511719 " fill-opacity="1" fill-rule="nonzero"/><path fill="#ebe9e9" d="M 213.855469 276.695312 C 213.902344 276.632812 213.894531 276.542969 213.835938 276.484375 C 213.65625 276.320312 195.675781 259.789062 186.96875 251.367188 C 178.335938 243.023438 181.246094 234.722656 181.277344 234.640625 C 181.304688 234.5625 181.269531 234.480469 181.195312 234.449219 C 181.125 234.414062 181.035156 234.4375 181 234.511719 L 174.246094 246.480469 C 168.523438 256.441406 174.066406 272.683594 179.726562 284.550781 C 185.847656 297.390625 193.414062 308.019531 193.488281 308.125 C 193.519531 308.167969 193.566406 308.191406 193.613281 308.191406 C 193.617188 308.191406 193.617188 308.191406 193.617188 308.191406 C 193.671875 308.191406 193.71875 308.164062 193.746094 308.117188 L 212.824219 278.015625 L 213.855469 276.695312 " fill-opacity="1" fill-rule="nonzero"/></svg>