<svg xmlns="http://www.w3.org/2000/svg" xmlns:xlink="http://www.w3.org/1999/xlink" width="70" zoomAndPan="magnify" viewBox="0 0 52.5 52.499999" height="70" preserveAspectRatio="xMidYMid meet" version="1.0"><defs><clipPath id="73806befb1"><path d="M 11 13.644531 L 41.734375 13.644531 L 41.734375 20.347656 L 11 20.347656 Z M 11 13.644531 " clip-rule="nonzero"/></clipPath><clipPath id="5ff685025e"><path d="M 23.21875 36.613281 L 29.507812 36.613281 L 29.507812 51.449219 L 23.21875 51.449219 Z M 23.21875 36.613281 " clip-rule="nonzero"/></clipPath></defs><path fill="#e0dddc" d="M 35.761719 10.457031 C 33.527344 9.832031 26.367188 9.863281 26.367188 9.863281 C 26.367188 9.863281 19.207031 9.832031 16.972656 10.457031 C 17.4375 6.257812 18.894531 -1.050781 23.277344 0.933594 C 23.277344 0.933594 23.917969 1.117188 24.664062 1.859375 C 25.410156 2.597656 26.367188 2.441406 26.367188 2.441406 C 26.367188 2.441406 27.328125 2.597656 28.070312 1.859375 C 28.816406 1.117188 29.457031 0.933594 29.457031 0.933594 C 33.839844 -1.050781 35.296875 6.257812 35.761719 10.457031 " fill-opacity="1" fill-rule="nonzero"/><g clip-path="url(#73806befb1)"><path fill="#e0dddc" d="M 34.671875 17.152344 C 34.621094 17.765625 34.445312 19.242188 33.929688 20.09375 C 33.339844 21.066406 34.140625 18.730469 33.871094 17.351562 C 29.988281 18.253906 26.367188 18.160156 26.367188 18.160156 C 26.367188 18.160156 22.75 18.253906 18.863281 17.351562 C 18.597656 18.730469 19.394531 21.066406 18.808594 20.09375 C 18.292969 19.242188 18.117188 17.769531 18.066406 17.15625 C 14.019531 16.113281 9.625 15.035156 11.40625 14.671875 C 12.945312 14.359375 15.679688 14.921875 16.53125 13.667969 C 16.53125 13.667969 21.390625 14.023438 26.367188 14.023438 C 31.34375 14.023438 36.207031 13.667969 36.207031 13.667969 C 37.054688 14.921875 39.789062 14.359375 41.328125 14.671875 C 43.109375 15.035156 38.714844 16.113281 34.671875 17.152344 " fill-opacity="1" fill-rule="nonzero"/></g><path fill="#e0dddc" d="M 22.066406 28.777344 C 22.070312 28.777344 22.324219 28.703125 22.558594 28.605469 C 22.941406 28.449219 24.890625 27.734375 25.523438 27.640625 C 25.527344 27.636719 25.878906 27.582031 25.871094 27.308594 C 25.867188 27.128906 25.773438 27.03125 25.609375 27.03125 C 25.523438 27.03125 25.414062 27.054688 25.292969 27.109375 C 24.625 27.394531 22.410156 28.351562 22.042969 28.738281 C 22.039062 28.746094 22.035156 28.757812 22.042969 28.765625 C 22.046875 28.773438 22.054688 28.777344 22.0625 28.777344 C 22.0625 28.777344 22.066406 28.777344 22.066406 28.777344 " fill-opacity="1" fill-rule="nonzero"/><path fill="#e0dddc" d="M 30.175781 28.605469 C 30.414062 28.703125 30.667969 28.777344 30.667969 28.777344 C 30.671875 28.777344 30.671875 28.777344 30.675781 28.777344 C 30.6875 28.777344 30.699219 28.765625 30.699219 28.753906 C 30.699219 28.746094 30.695312 28.738281 30.6875 28.734375 C 30.308594 28.34375 28.109375 27.390625 27.441406 27.109375 C 27.320312 27.054688 27.214844 27.03125 27.128906 27.03125 C 26.960938 27.03125 26.867188 27.128906 26.863281 27.308594 C 26.859375 27.582031 27.210938 27.636719 27.214844 27.640625 C 27.847656 27.734375 29.792969 28.449219 30.175781 28.605469 " fill-opacity="1" fill-rule="nonzero"/><g clip-path="url(#5ff685025e)"><path fill="#c31c2f" d="M 27.628906 36.796875 C 27.574219 36.707031 27.441406 36.632812 27.332031 36.632812 L 25.402344 36.632812 C 25.292969 36.632812 25.164062 36.707031 25.105469 36.796875 L 23.261719 39.976562 C 23.207031 40.070312 23.226562 40.207031 23.304688 40.28125 L 24.800781 41.929688 C 24.832031 42.019531 24.84375 42.175781 24.832031 42.269531 L 23.363281 48.988281 C 23.347656 49.089844 23.390625 49.238281 23.464844 49.316406 L 26.226562 51.386719 C 26.265625 51.425781 26.316406 51.449219 26.367188 51.449219 C 26.421875 51.449219 26.472656 51.425781 26.507812 51.386719 L 29.269531 49.316406 C 29.34375 49.238281 29.390625 49.09375 29.375 48.988281 L 27.90625 42.269531 C 27.890625 42.171875 27.90625 42.019531 27.9375 41.929688 L 29.429688 40.28125 C 29.511719 40.207031 29.53125 40.070312 29.472656 39.976562 L 27.628906 36.796875 " fill-opacity="1" fill-rule="nonzero"/></g><path fill="#e0dddc" d="M 32.863281 30.1875 C 32.855469 30.175781 32.84375 30.171875 32.832031 30.179688 C 32.824219 30.183594 32.816406 30.195312 32.820312 30.207031 C 32.824219 30.21875 33.257812 31.4375 31.980469 32.660156 C 30.691406 33.898438 28.03125 36.324219 28.003906 36.347656 C 27.996094 36.355469 27.996094 36.367188 28.003906 36.378906 L 28.152344 36.570312 L 30.976562 40.992188 C 30.980469 40.996094 30.988281 41 30.996094 41 C 31.003906 41 31.011719 40.996094 31.015625 40.992188 C 31.027344 40.976562 32.144531 39.414062 33.050781 37.53125 C 33.886719 35.789062 34.707031 33.40625 33.863281 31.945312 L 32.863281 30.1875 " fill-opacity="1" fill-rule="nonzero"/><path fill="#e0dddc" d="M 24.734375 36.378906 C 24.742188 36.367188 24.742188 36.355469 24.730469 36.347656 C 24.707031 36.324219 22.046875 33.898438 20.757812 32.660156 C 19.480469 31.4375 19.910156 30.21875 19.914062 30.207031 C 19.917969 30.195312 19.914062 30.183594 19.902344 30.179688 C 19.894531 30.171875 19.878906 30.175781 19.875 30.1875 L 18.875 31.945312 C 18.027344 33.40625 18.847656 35.789062 19.6875 37.53125 C 20.589844 39.414062 21.710938 40.976562 21.722656 40.992188 C 21.726562 40.996094 21.734375 41 21.742188 41 C 21.75 41 21.753906 40.996094 21.761719 40.992188 L 24.582031 36.574219 L 24.734375 36.378906 " fill-opacity="1" fill-rule="nonzero"/><path fill="#c31c2f" d="M 36.207031 13.667969 C 36.207031 13.667969 31.34375 14.023438 26.367188 14.023438 C 21.390625 14.023438 16.53125 13.667969 16.53125 13.667969 L 16.972656 10.457031 C 19.207031 9.832031 26.367188 9.863281 26.367188 9.863281 C 26.367188 9.863281 33.527344 9.832031 35.761719 10.457031 L 36.207031 13.667969 " fill-opacity="1" fill-rule="nonzero"/></svg>